{"AssetCore":[{"AudioCoverPath":"misc/wav.png","AudioCoverResolution":[512.0,512.0],"FFProbeData":"Input #0, mp3, from '/home/corgifist/Downloads/Lady Gaga - Heavy Metal Lover.mp3':\n  Metadata:\n    encoder         : Lavf58.20.100\n    artist          : Lady Gaga\n    title           : Heavy Metal Lover\n  Duration: 00:04:12.60, start: 0.025057, bitrate: 320 kb/s\n  Stream #0:0: Audio: mp3, 44100 Hz, stereo, fltp, 320 kb/s\n    Metadata:\n      encoder         : Lavf\n    Side data:\n      replaygain: track gain - -6.200000, track peak - unknown, album gain - unknown, album peak - unknown, \n\n","FFProbeJsonData":"{\n    \"streams\": [\n        {\n            \"index\": 0,\n            \"codec_name\": \"mp3\",\n            \"codec_long_name\": \"MP3 (MPEG audio layer 3)\",\n            \"codec_type\": \"audio\",\n            \"codec_tag_string\": \"[0][0][0][0]\",\n            \"codec_tag\": \"0x0000\",\n            \"sample_fmt\": \"fltp\",\n            \"sample_rate\": \"44100\",\n            \"channels\": 2,\n            \"channel_layout\": \"stereo\",\n            \"bits_per_sample\": 0,\n            \"initial_padding\": 0,\n            \"r_frame_rate\": \"0/0\",\n            \"avg_frame_rate\": \"0/0\",\n            \"time_base\": \"1/14112000\",\n            \"start_pts\": 353600,\n            \"start_time\": \"0.025057\",\n            \"duration_ts\": 3564748800,\n            \"duration\": \"252.604082\",\n            \"bit_rate\": \"320000\",\n            \"disposition\": {\n                \"default\": 0,\n                \"dub\": 0,\n                \"original\": 0,\n                \"comment\": 0,\n                \"lyrics\": 0,\n                \"karaoke\": 0,\n                \"forced\": 0,\n                \"hearing_impaired\": 0,\n                \"visual_impaired\": 0,\n                \"clean_effects\": 0,\n                \"attached_pic\": 0,\n                \"timed_thumbnails\": 0,\n                \"captions\": 0,\n                \"descriptions\": 0,\n                \"metadata\": 0,\n                \"dependent\": 0,\n                \"still_image\": 0\n            },\n            \"tags\": {\n                \"encoder\": \"Lavf\"\n            },\n            \"side_data_list\": [\n                {\n                    \"side_data_type\": \"Replay Gain\"\n                }\n            ]\n        }\n    ],\n    \"format\": {\n        \"filename\": \"/home/corgifist/Downloads/Lady Gaga - Heavy Metal Lover.mp3\",\n        \"nb_streams\": 1,\n        \"nb_programs\": 0,\n        \"format_name\": \"mp3\",\n        \"format_long_name\": \"MP2/3 (MPEG audio layer 2/3)\",\n        \"start_time\": \"0.025057\",\n        \"duration\": \"252.604082\",\n        \"size\": \"10106441\",\n        \"bit_rate\": \"320072\",\n        \"probe_score\": 51,\n        \"tags\": {\n            \"encoder\": \"Lavf58.20.100\",\n            \"artist\": \"Lady Gaga\",\n            \"title\": \"Heavy Metal Lover\"\n        }\n    }\n}\n","ID":481437403,"InternalName":"Heavy Metal Lover","LinkedCache":["cache/1432.wav"],"Path":"cache/1432.wav","Type":"Audio"},{"AudioCoverPath":"misc/wav.png","AudioCoverResolution":[512.0,512.0],"FFProbeData":"Input #0, mp3, from '/media/corgifist/Stuff/ProgrammingProjects/Electron/misc/example.mp3':\n  Metadata:\n    Encoded by      : LAME in FL Studio 20\n    BPM (beats per minute): 120\n    date            : 2018\n  Duration: 00:00:42.06, start: 0.025057, bitrate: 139 kb/s\n  Stream #0:0: Audio: mp3, 44100 Hz, stereo, fltp, 139 kb/s\n    Metadata:\n      encoder         : LAME3.100\n\n","FFProbeJsonData":"{\n    \"streams\": [\n        {\n            \"index\": 0,\n            \"codec_name\": \"mp3\",\n            \"codec_long_name\": \"MP3 (MPEG audio layer 3)\",\n            \"codec_type\": \"audio\",\n            \"codec_tag_string\": \"[0][0][0][0]\",\n            \"codec_tag\": \"0x0000\",\n            \"sample_fmt\": \"fltp\",\n            \"sample_rate\": \"44100\",\n            \"channels\": 2,\n            \"channel_layout\": \"stereo\",\n            \"bits_per_sample\": 0,\n            \"initial_padding\": 0,\n            \"r_frame_rate\": \"0/0\",\n            \"avg_frame_rate\": \"0/0\",\n            \"time_base\": \"1/14112000\",\n            \"start_pts\": 353600,\n            \"start_time\": \"0.025057\",\n            \"duration_ts\": 593510400,\n            \"duration\": \"42.057143\",\n            \"bit_rate\": \"139529\",\n            \"disposition\": {\n                \"default\": 0,\n                \"dub\": 0,\n                \"original\": 0,\n                \"comment\": 0,\n                \"lyrics\": 0,\n                \"karaoke\": 0,\n                \"forced\": 0,\n                \"hearing_impaired\": 0,\n                \"visual_impaired\": 0,\n                \"clean_effects\": 0,\n                \"attached_pic\": 0,\n                \"timed_thumbnails\": 0,\n                \"captions\": 0,\n                \"descriptions\": 0,\n                \"metadata\": 0,\n                \"dependent\": 0,\n                \"still_image\": 0\n            },\n            \"tags\": {\n                \"encoder\": \"LAME3.100\"\n            }\n        }\n    ],\n    \"format\": {\n        \"filename\": \"/media/corgifist/Stuff/ProgrammingProjects/Electron/misc/example.mp3\",\n        \"nb_streams\": 1,\n        \"nb_programs\": 0,\n        \"format_name\": \"mp3\",\n        \"format_long_name\": \"MP2/3 (MPEG audio layer 2/3)\",\n        \"start_time\": \"0.025057\",\n        \"duration\": \"42.057143\",\n        \"size\": \"733645\",\n        \"bit_rate\": \"139552\",\n        \"probe_score\": 51,\n        \"tags\": {\n            \"Encoded by\": \"LAME in FL Studio 20\",\n            \"BPM (beats per minute)\": \"120\",\n            \"date\": \"2018\"\n        }\n    }\n}\n","ID":1344315927,"InternalName":"New Asset","LinkedCache":["cache/932.wav"],"Path":"cache/932.wav","Type":"Audio"},{"AudioCoverPath":"misc/wav.png","AudioCoverResolution":[512.0,512.0],"FFProbeData":"Input #0, wav, from '/media/corgifist/External/Electron/misc/bass_sample.wav':\n  Metadata:\n    comment         : Downloaded from Samplefocus.com\n    encoder         : Lavf56.40.101\n  Duration: 00:00:02.43, bitrate: 1411 kb/s\n  Stream #0:0: Audio: pcm_s16le ([1][0][0][0] / 0x0001), 44100 Hz, 2 channels, s16, 1411 kb/s\n\n","FFProbeJsonData":"{\n    \"streams\": [\n        {\n            \"index\": 0,\n            \"codec_name\": \"pcm_s16le\",\n            \"codec_long_name\": \"PCM signed 16-bit little-endian\",\n            \"codec_type\": \"audio\",\n            \"codec_tag_string\": \"[1][0][0][0]\",\n            \"codec_tag\": \"0x0001\",\n            \"sample_fmt\": \"s16\",\n            \"sample_rate\": \"44100\",\n            \"channels\": 2,\n            \"bits_per_sample\": 16,\n            \"initial_padding\": 0,\n            \"r_frame_rate\": \"0/0\",\n            \"avg_frame_rate\": \"0/0\",\n            \"time_base\": \"1/44100\",\n            \"duration_ts\": 107162,\n            \"duration\": \"2.429977\",\n            \"bit_rate\": \"1411200\",\n            \"disposition\": {\n                \"default\": 0,\n                \"dub\": 0,\n                \"original\": 0,\n                \"comment\": 0,\n                \"lyrics\": 0,\n                \"karaoke\": 0,\n                \"forced\": 0,\n                \"hearing_impaired\": 0,\n                \"visual_impaired\": 0,\n                \"clean_effects\": 0,\n                \"attached_pic\": 0,\n                \"timed_thumbnails\": 0,\n                \"captions\": 0,\n                \"descriptions\": 0,\n                \"metadata\": 0,\n                \"dependent\": 0,\n                \"still_image\": 0\n            }\n        }\n    ],\n    \"format\": {\n        \"filename\": \"/media/corgifist/External/Electron/misc/bass_sample.wav\",\n        \"nb_streams\": 1,\n        \"nb_programs\": 0,\n        \"format_name\": \"wav\",\n        \"format_long_name\": \"WAV / WAVE (Waveform Audio)\",\n        \"duration\": \"2.429977\",\n        \"size\": \"428766\",\n        \"bit_rate\": \"1411588\",\n        \"probe_score\": 99,\n        \"tags\": {\n            \"comment\": \"Downloaded from Samplefocus.com\",\n            \"encoder\": \"Lavf56.40.101\"\n        }\n    }\n}\n","ID":627537648,"InternalName":"Bass","LinkedCache":[],"Path":"/media/corgifist/External/Electron/misc/bass_sample.wav","Type":"Audio"},{"AudioCoverPath":"","FFProbeData":"Input #0, png_pipe, from 'misc/wav.png':\n  Duration: N/A, bitrate: N/A\n  Stream #0:0: Video: png, rgba(pc), 512x512 [SAR 3780:3780 DAR 1:1], 25 fps, 25 tbr, 25 tbn\n\n","FFProbeJsonData":"","ID":2046598356,"InternalName":"Wave","LinkedCache":[],"Path":"misc/wav.png","Type":"Image"},{"AudioCoverPath":"cache/1118.png","AudioCoverResolution":[1000.0,1000.0],"FFProbeData":"Input #0, mp3, from '/media/corgifist/Stuff/ProgrammingProjects/Electron/misc/g_hooker_cover.mp3':\n  Metadata:\n    artist          : Lady Gaga\n    title           : Government Hooker\n    encoder         : Lavf60.3.100\n  Duration: 00:04:14.30, start: 0.025056, bitrate: 348 kb/s\n  Stream #0:0: Audio: mp3, 44100 Hz, stereo, fltp, 320 kb/s\n    Metadata:\n      encoder         : LAME3.99r\n    Side data:\n      replaygain: track gain - -7.700000, track peak - unknown, album gain - unknown, album peak - unknown, \n  Stream #0:1: Video: png, rgb24(pc), 1000x1000, 90k tbr, 90k tbn (attached pic)\n    Metadata:\n      title           : Government Hooker\n      comment         : Other\n\n","FFProbeJsonData":"{\n    \"streams\": [\n        {\n            \"index\": 0,\n            \"codec_name\": \"mp3\",\n            \"codec_long_name\": \"MP3 (MPEG audio layer 3)\",\n            \"codec_type\": \"audio\",\n            \"codec_tag_string\": \"[0][0][0][0]\",\n            \"codec_tag\": \"0x0000\",\n            \"sample_fmt\": \"fltp\",\n            \"sample_rate\": \"44100\",\n            \"channels\": 2,\n            \"channel_layout\": \"stereo\",\n            \"bits_per_sample\": 0,\n            \"initial_padding\": 0,\n            \"r_frame_rate\": \"0/0\",\n            \"avg_frame_rate\": \"0/0\",\n            \"time_base\": \"1/14112000\",\n            \"start_pts\": 353600,\n            \"start_time\": \"0.025057\",\n            \"duration_ts\": 3588710400,\n            \"duration\": \"254.302041\",\n            \"bit_rate\": \"320000\",\n            \"disposition\": {\n                \"default\": 0,\n                \"dub\": 0,\n                \"original\": 0,\n                \"comment\": 0,\n                \"lyrics\": 0,\n                \"karaoke\": 0,\n                \"forced\": 0,\n                \"hearing_impaired\": 0,\n                \"visual_impaired\": 0,\n                \"clean_effects\": 0,\n                \"attached_pic\": 0,\n                \"timed_thumbnails\": 0,\n                \"captions\": 0,\n                \"descriptions\": 0,\n                \"metadata\": 0,\n                \"dependent\": 0,\n                \"still_image\": 0\n            },\n            \"tags\": {\n                \"encoder\": \"LAME3.99r\"\n            },\n            \"side_data_list\": [\n                {\n                    \"side_data_type\": \"Replay Gain\"\n                }\n            ]\n        },\n        {\n            \"index\": 1,\n            \"codec_name\": \"png\",\n            \"codec_long_name\": \"PNG (Portable Network Graphics) image\",\n            \"codec_type\": \"video\",\n            \"codec_tag_string\": \"[0][0][0][0]\",\n            \"codec_tag\": \"0x0000\",\n            \"width\": 1000,\n            \"height\": 1000,\n            \"coded_width\": 1000,\n            \"coded_height\": 1000,\n            \"closed_captions\": 0,\n            \"film_grain\": 0,\n            \"has_b_frames\": 0,\n            \"pix_fmt\": \"rgb24\",\n            \"level\": -99,\n            \"color_range\": \"pc\",\n            \"refs\": 1,\n            \"r_frame_rate\": \"90000/1\",\n            \"avg_frame_rate\": \"0/0\",\n            \"time_base\": \"1/90000\",\n            \"start_pts\": 2255,\n            \"start_time\": \"0.025056\",\n            \"duration_ts\": 22887184,\n            \"duration\": \"254.302044\",\n            \"disposition\": {\n                \"default\": 0,\n                \"dub\": 0,\n                \"original\": 0,\n                \"comment\": 0,\n                \"lyrics\": 0,\n                \"karaoke\": 0,\n                \"forced\": 0,\n                \"hearing_impaired\": 0,\n                \"visual_impaired\": 0,\n                \"clean_effects\": 0,\n                \"attached_pic\": 1,\n                \"timed_thumbnails\": 0,\n                \"captions\": 0,\n                \"descriptions\": 0,\n                \"metadata\": 0,\n                \"dependent\": 0,\n                \"still_image\": 0\n            },\n            \"tags\": {\n                \"title\": \"Government Hooker\",\n                \"comment\": \"Other\"\n            }\n        }\n    ],\n    \"format\": {\n        \"filename\": \"/media/corgifist/Stuff/ProgrammingProjects/Electron/misc/g_hooker_cover.mp3\",\n        \"nb_streams\": 2,\n        \"nb_programs\": 0,\n        \"format_name\": \"mp3\",\n        \"format_long_name\": \"MP2/3 (MPEG audio layer 2/3)\",\n        \"start_time\": \"0.025056\",\n        \"duration\": \"254.302041\",\n        \"size\": \"11078995\",\n        \"bit_rate\": \"348530\",\n        \"probe_score\": 51,\n        \"tags\": {\n            \"artist\": \"Lady Gaga\",\n            \"title\": \"Government Hooker\",\n            \"encoder\": \"Lavf60.3.100\"\n        }\n    }\n}\n","ID":1909294,"InternalName":"Gaga","LinkedCache":["cache/1114.png","cache/1116.wav","cache/1118.png","cache/1120.wav"],"Path":"cache/1120.wav","Type":"Audio"},{"AudioCoverPath":"","FFProbeData":"Input #0, png_pipe, from 'cache/1118.png':\n  Duration: N/A, bitrate: N/A\n  Stream #0:0: Video: png, rgb24(pc), 1000x1000, 25 fps, 25 tbr, 25 tbn\n\n","FFProbeJsonData":"","ID":70830949,"InternalName":"New Asset","LinkedCache":[],"Path":"cache/1118.png","Type":"Image"}],"AssetRegistry":[{"AudioCoverPath":"cache/798.png","AudioCoverResolution":[1000.0,1000.0],"FFProbeData":"Input #0, mp3, from '/media/corgifist/Stuff/ProgrammingProjects/Electron/misc/g_hooker_cover.mp3':\n  Metadata:\n    artist          : Lady Gaga\n    title           : Government Hooker\n    encoder         : Lavf60.3.100\n  Duration: 00:04:14.30, start: 0.025056, bitrate: 348 kb/s\n  Stream #0:0: Audio: mp3, 44100 Hz, stereo, fltp, 320 kb/s\n    Metadata:\n      encoder         : LAME3.99r\n    Side data:\n      replaygain: track gain - -7.700000, track peak - unknown, album gain - unknown, album peak - unknown, \n  Stream #0:1: Video: png, rgb24(pc), 1000x1000, 90k tbr, 90k tbn (attached pic)\n    Metadata:\n      title           : Government Hooker\n      comment         : Other\n\n","FFProbeJsonData":"{\n    \"streams\": [\n        {\n            \"index\": 0,\n            \"codec_name\": \"mp3\",\n            \"codec_long_name\": \"MP3 (MPEG audio layer 3)\",\n            \"codec_type\": \"audio\",\n            \"codec_tag_string\": \"[0][0][0][0]\",\n            \"codec_tag\": \"0x0000\",\n            \"sample_fmt\": \"fltp\",\n            \"sample_rate\": \"44100\",\n            \"channels\": 2,\n            \"channel_layout\": \"stereo\",\n            \"bits_per_sample\": 0,\n            \"initial_padding\": 0,\n            \"r_frame_rate\": \"0/0\",\n            \"avg_frame_rate\": \"0/0\",\n            \"time_base\": \"1/14112000\",\n            \"start_pts\": 353600,\n            \"start_time\": \"0.025057\",\n            \"duration_ts\": 3588710400,\n            \"duration\": \"254.302041\",\n            \"bit_rate\": \"320000\",\n            \"disposition\": {\n                \"default\": 0,\n                \"dub\": 0,\n                \"original\": 0,\n                \"comment\": 0,\n                \"lyrics\": 0,\n                \"karaoke\": 0,\n                \"forced\": 0,\n                \"hearing_impaired\": 0,\n                \"visual_impaired\": 0,\n                \"clean_effects\": 0,\n                \"attached_pic\": 0,\n                \"timed_thumbnails\": 0,\n                \"captions\": 0,\n                \"descriptions\": 0,\n                \"metadata\": 0,\n                \"dependent\": 0,\n                \"still_image\": 0\n            },\n            \"tags\": {\n                \"encoder\": \"LAME3.99r\"\n            },\n            \"side_data_list\": [\n                {\n                    \"side_data_type\": \"Replay Gain\"\n                }\n            ]\n        },\n        {\n            \"index\": 1,\n            \"codec_name\": \"png\",\n            \"codec_long_name\": \"PNG (Portable Network Graphics) image\",\n            \"codec_type\": \"video\",\n            \"codec_tag_string\": \"[0][0][0][0]\",\n            \"codec_tag\": \"0x0000\",\n            \"width\": 1000,\n            \"height\": 1000,\n            \"coded_width\": 1000,\n            \"coded_height\": 1000,\n            \"closed_captions\": 0,\n            \"film_grain\": 0,\n            \"has_b_frames\": 0,\n            \"pix_fmt\": \"rgb24\",\n            \"level\": -99,\n            \"color_range\": \"pc\",\n            \"refs\": 1,\n            \"r_frame_rate\": \"90000/1\",\n            \"avg_frame_rate\": \"0/0\",\n            \"time_base\": \"1/90000\",\n            \"start_pts\": 2255,\n            \"start_time\": \"0.025056\",\n            \"duration_ts\": 22887184,\n            \"duration\": \"254.302044\",\n            \"disposition\": {\n                \"default\": 0,\n                \"dub\": 0,\n                \"original\": 0,\n                \"comment\": 0,\n                \"lyrics\": 0,\n                \"karaoke\": 0,\n                \"forced\": 0,\n                \"hearing_impaired\": 0,\n                \"visual_impaired\": 0,\n                \"clean_effects\": 0,\n                \"attached_pic\": 1,\n                \"timed_thumbnails\": 0,\n                \"captions\": 0,\n                \"descriptions\": 0,\n                \"metadata\": 0,\n                \"dependent\": 0,\n                \"still_image\": 0\n            },\n            \"tags\": {\n                \"title\": \"Government Hooker\",\n                \"comment\": \"Other\"\n            }\n        }\n    ],\n    \"format\": {\n        \"filename\": \"/media/corgifist/Stuff/ProgrammingProjects/Electron/misc/g_hooker_cover.mp3\",\n        \"nb_streams\": 2,\n        \"nb_programs\": 0,\n        \"format_name\": \"mp3\",\n        \"format_long_name\": \"MP2/3 (MPEG audio layer 2/3)\",\n        \"start_time\": \"0.025056\",\n        \"duration\": \"254.302041\",\n        \"size\": \"11078995\",\n        \"bit_rate\": \"348530\",\n        \"probe_score\": 51,\n        \"tags\": {\n            \"artist\": \"Lady Gaga\",\n            \"title\": \"Government Hooker\",\n            \"encoder\": \"Lavf60.3.100\"\n        }\n    }\n}\n","ID":631684021,"InternalName":"GHooker","LinkedCache":["cache/794.png","cache/796.wav","cache/798.png","cache/800.wav"],"Path":"cache/800.wav","Type":"Audio"},{"AudioCoverPath":"cache/804.png","AudioCoverResolution":[200.0,200.0],"FFProbeData":"Input #0, mp3, from '/media/corgifist/Stuff/ProgrammingProjects/Electron/misc/stereo-test.mp3':\n  Metadata:\n    album           : Test Sounds\n    title           : Stereo Test\n    artist          : Test\n    album_artist    : alsa-utils\n  Duration: 00:00:16.81, start: 0.034531, bitrate: 98 kb/s\n  Stream #0:0: Audio: mp3, 32000 Hz, stereo, fltp, 96 kb/s\n    Metadata:\n      encoder         : LAME3.99r\n    Side data:\n      replaygain: track gain - 1.200000, track peak - unknown, album gain - unknown, album peak - unknown, \n  Stream #0:1: Video: png, pal8(pc), 200x200 [SAR 11811:11811 DAR 1:1], 90k tbr, 90k tbn (attached pic)\n    Metadata:\n      comment         : Cover (front)\n\n","FFProbeJsonData":"{\n    \"streams\": [\n        {\n            \"index\": 0,\n            \"codec_name\": \"mp3\",\n            \"codec_long_name\": \"MP3 (MPEG audio layer 3)\",\n            \"codec_type\": \"audio\",\n            \"codec_tag_string\": \"[0][0][0][0]\",\n            \"codec_tag\": \"0x0000\",\n            \"sample_fmt\": \"fltp\",\n            \"sample_rate\": \"32000\",\n            \"channels\": 2,\n            \"channel_layout\": \"stereo\",\n            \"bits_per_sample\": 0,\n            \"initial_padding\": 0,\n            \"r_frame_rate\": \"0/0\",\n            \"avg_frame_rate\": \"0/0\",\n            \"time_base\": \"1/14112000\",\n            \"start_pts\": 487305,\n            \"start_time\": \"0.034531\",\n            \"duration_ts\": 237250944,\n            \"duration\": \"16.812000\",\n            \"bit_rate\": \"96000\",\n            \"disposition\": {\n                \"default\": 0,\n                \"dub\": 0,\n                \"original\": 0,\n                \"comment\": 0,\n                \"lyrics\": 0,\n                \"karaoke\": 0,\n                \"forced\": 0,\n                \"hearing_impaired\": 0,\n                \"visual_impaired\": 0,\n                \"clean_effects\": 0,\n                \"attached_pic\": 0,\n                \"timed_thumbnails\": 0,\n                \"captions\": 0,\n                \"descriptions\": 0,\n                \"metadata\": 0,\n                \"dependent\": 0,\n                \"still_image\": 0\n            },\n            \"tags\": {\n                \"encoder\": \"LAME3.99r\"\n            },\n            \"side_data_list\": [\n                {\n                    \"side_data_type\": \"Replay Gain\"\n                }\n            ]\n        },\n        {\n            \"index\": 1,\n            \"codec_name\": \"png\",\n            \"codec_long_name\": \"PNG (Portable Network Graphics) image\",\n            \"codec_type\": \"video\",\n            \"codec_tag_string\": \"[0][0][0][0]\",\n            \"codec_tag\": \"0x0000\",\n            \"width\": 200,\n            \"height\": 200,\n            \"coded_width\": 200,\n            \"coded_height\": 200,\n            \"closed_captions\": 0,\n            \"film_grain\": 0,\n            \"has_b_frames\": 0,\n            \"sample_aspect_ratio\": \"1:1\",\n            \"display_aspect_ratio\": \"1:1\",\n            \"pix_fmt\": \"pal8\",\n            \"level\": -99,\n            \"color_range\": \"pc\",\n            \"refs\": 1,\n            \"r_frame_rate\": \"90000/1\",\n            \"avg_frame_rate\": \"0/0\",\n            \"time_base\": \"1/90000\",\n            \"start_pts\": 3108,\n            \"start_time\": \"0.034533\",\n            \"duration_ts\": 1513080,\n            \"duration\": \"16.812000\",\n            \"disposition\": {\n                \"default\": 0,\n                \"dub\": 0,\n                \"original\": 0,\n                \"comment\": 0,\n                \"lyrics\": 0,\n                \"karaoke\": 0,\n                \"forced\": 0,\n                \"hearing_impaired\": 0,\n                \"visual_impaired\": 0,\n                \"clean_effects\": 0,\n                \"attached_pic\": 1,\n                \"timed_thumbnails\": 0,\n                \"captions\": 0,\n                \"descriptions\": 0,\n                \"metadata\": 0,\n                \"dependent\": 0,\n                \"still_image\": 0\n            },\n            \"tags\": {\n                \"comment\": \"Cover (front)\"\n            }\n        }\n    ],\n    \"format\": {\n        \"filename\": \"/media/corgifist/Stuff/ProgrammingProjects/Electron/misc/stereo-test.mp3\",\n        \"nb_streams\": 2,\n        \"nb_programs\": 0,\n        \"format_name\": \"mp3\",\n        \"format_long_name\": \"MP2/3 (MPEG audio layer 2/3)\",\n        \"start_time\": \"0.034531\",\n        \"duration\": \"16.812000\",\n        \"size\": \"207156\",\n        \"bit_rate\": \"98575\",\n        \"probe_score\": 51,\n        \"tags\": {\n            \"album\": \"Test Sounds\",\n            \"title\": \"Stereo Test\",\n            \"artist\": \"Test\",\n            \"album_artist\": \"alsa-utils\"\n        }\n    }\n}\n","ID":308567301,"InternalName":"STTest","LinkedCache":["cache/804.png","cache/806.wav"],"Path":"cache/806.wav","Type":"Audio"},{"AudioCoverPath":"","FFProbeData":"Input #0, png_pipe, from 'cache/798.png':\n  Duration: N/A, bitrate: N/A\n  Stream #0:0: Video: png, rgb24(pc), 1000x1000, 25 fps, 25 tbr, 25 tbn\n\n","FFProbeJsonData":"","ID":22237136,"InternalName":"LadyGaga","LinkedCache":[],"Path":"cache/798.png","Type":"Image"},{"AudioCoverPath":"","FFProbeData":"Input #0, png_pipe, from 'cache/804.png':\n  Duration: N/A, bitrate: N/A\n  Stream #0:0: Video: png, pal8(pc), 200x200 [SAR 11811:11811 DAR 1:1], 25 fps, 25 tbr, 25 tbn\n\n","FFProbeJsonData":"","ID":351700738,"InternalName":"STCover","LinkedCache":[],"Path":"cache/804.png","Type":"Image"}],"AssetSearch":"","AssetSelected":4,"BackgroundColor":[0.17265667021274567,0.22163037955760956,0.40392160415649414],"Framerate":60,"LastAssetPreviewScale":1.2000000476837158,"LastColorBuffer":3,"LastSelectedLayer":1996621904,"LegendWidth":0.18406206369400024,"LoopPlayback":true,"MaxFramerate":60.0,"Playing":true,"PreviewResolution":0,"ProjectName":"TimeShiftTest","ProjectResolution":[1280,720],"RenderPreviewScale":0.699999988079071,"TimelineValue":6049.10107421875,"TimelineZoom":1.8600006103515625}